<?xml version="1.0" standalone="no"?>
<!DOCTYPE svg PUBLIC "-//W3C//DTD SVG 20010904//EN"
 "http://www.w3.org/TR/2001/REC-SVG-20010904/DTD/svg10.dtd">
<svg version="1.0" xmlns="http://www.w3.org/2000/svg"
 width="129.000000pt" height="124.000000pt" viewBox="0 0 129.000000 124.000000"
 preserveAspectRatio="xMidYMid meet">
<metadata>
Created by potrace 1.12, written by Peter Selinger 2001-2015
</metadata>
<g transform="translate(0.000000,124.000000) scale(0.100000,-0.100000)"
fill="#000000" stroke="none">
<path d="M167 1230 c-44 -13 -95 -57 -117 -100 -19 -38 -20 -60 -20 -508 0
-520 -1 -513 64 -570 20 -17 53 -36 73 -42 26 -8 184 -10 498 -8 444 3 461 4
500 24 25 13 51 39 70 69 l30 48 3 456 c2 312 0 468 -8 494 -14 49 -65 106
-115 128 -37 17 -75 19 -495 18 -250 0 -468 -5 -483 -9z m651 -245 c88 -27
142 -98 142 -189 0 -44 -35 -109 -71 -130 l-31 -18 29 -15 c63 -32 103 -102
103 -178 0 -53 -30 -123 -66 -154 -61 -54 -122 -65 -364 -65 l-215 -1 -3 383
-2 382 213 0 c162 0 226 -4 265 -15z"/>
<path d="M550 790 l0 -80 80 0 c91 0 120 17 120 69 0 67 -35 91 -135 91 l-65
0 0 -80z"/>
<path d="M550 469 l0 -101 90 4 c77 4 93 7 115 28 19 18 25 33 25 67 0 25 -4
53 -10 63 -14 26 -63 40 -146 40 l-74 0 0 -101z"/>
</g>
</svg>
